# xmcd
#
# Track frame offsets:
#	150
#	22471
#	39305
#	62896
#	83954
#	100918
#	110272
#	120572
#	142863
#	163368
#	183881
#	205785
#	226852
#	251459
#	274701
#	303232
#
# Disc length: 4391 seconds
# Revision: 0
# Processed by: cddbd v1.5.2PL0 Copyright (c) Steve Scherf et al.
# Submitted via: dBpowerAMP V12.0
#
DISCID=d5112510
DTITLE=Various Artist - 7...
DYEAR=2011
DGENRE=R&B
TTITLE0=Mint Condition - Can't Get Away
TTITLE1=Mint Condition - I Want It
TTITLE2=Mint Condition - Walk On
TTITLE3=Mint Condition - Mindslicka
TTITLE4=Mint Condition - Caught My Eye
TTITLE5=Mint Condition - Bossalude
TTITLE6=Mint Condition - 7
TTITLE7=Mint Condition - Ease the Pain
TTITLE8=Mint Condition - Unsung
TTITLE9=Mint Condition feat. Kelly Price - Not My Daddy
TTITLE10=Mint Condition - 20 Years Later
TTITLE11=Mint Condition - What U Want
TTITLE12=Mint Condition - Cupid's Hunt
TTITLE13=Mint Condition - God Bless a Woman and a Man
TTITLE14=Mint Condition - Nothing Left to Say (Live at Yoshi's San Francisco)
TTITLE15=Mint Condition - I'm Ready (Live at Yoshi's San Fransicso)
EXTD=
EXTT0=
EXTT1=
EXTT2=
EXTT3=
EXTT4=
EXTT5=
EXTT6=
EXTT7=
EXTT8=
EXTT9=
EXTT10=
EXTT11=
EXTT12=
EXTT13=
EXTT14=
EXTT15=
PLAYORDER=
